<svg width="125" height="125" viewBox="0 0 125 125" fill="none" xmlns="http://www.w3.org/2000/svg">
<path d="M125 62.5C125 97.0178 97.0178 125 62.5 125C27.9822 125 0 97.0178 0 62.5C0 27.9822 27.9822 0 62.5 0C97.0178 0 125 27.9822 125 62.5ZM1.25 62.5C1.25 96.3274 28.6726 123.75 62.5 123.75C96.3274 123.75 123.75 96.3274 123.75 62.5C123.75 28.6726 96.3274 1.25 62.5 1.25C28.6726 1.25 1.25 28.6726 1.25 62.5Z" fill="#313335"/>
<path d="M122.222 62.5001C122.222 95.4837 95.4837 122.222 62.5001 122.222C29.5164 122.222 2.77783 95.4837 2.77783 62.5001C2.77783 29.5164 29.5164 2.77783 62.5001 2.77783C95.4837 2.77783 122.222 29.5164 122.222 62.5001ZM3.97227 62.5001C3.97227 94.8241 30.1761 121.028 62.5001 121.028C94.8241 121.028 121.028 94.8241 121.028 62.5001C121.028 30.1761 94.8241 3.97227 62.5001 3.97227C30.1761 3.97227 3.97227 30.1761 3.97227 62.5001Z" fill="#313335"/>
<path d="M119.445 62.5001C119.445 93.9497 93.9497 119.445 62.5001 119.445C31.0506 119.445 5.55566 93.9497 5.55566 62.5001C5.55566 31.0506 31.0506 5.55566 62.5001 5.55566C93.9497 5.55566 119.445 31.0506 119.445 62.5001ZM6.69455 62.5001C6.69455 93.3207 31.6796 118.306 62.5001 118.306C93.3207 118.306 118.306 93.3207 118.306 62.5001C118.306 31.6796 93.3207 6.69455 62.5001 6.69455C31.6796 6.69455 6.69455 31.6796 6.69455 62.5001Z" fill="#313335"/>
<ellipse cx="63.889" cy="22.222" rx="8.33334" ry="8.33333" fill="#313335"/>
<ellipse cx="48.611" cy="34.7223" rx="4.16667" ry="4.16667" fill="#313335"/>
<ellipse cx="79.1667" cy="34.7223" rx="4.16667" ry="4.16667" fill="#313335"/>
<path d="M51.5676 46.4183L39.1984 100.579L27.7777 94.4445L51.5676 46.4183Z" fill="#313335"/>
<path d="M80.7063 45.6473L93.0755 99.8084L104.496 93.6735L80.7063 45.6473Z" fill="#313335"/>
<path d="M64.5835 44.4443L58.3335 111.111L70.8335 111.111L64.5835 44.4443Z" fill="#313335"/>
</svg>
